<mxfile host="app.diagrams.net" agent="Mozilla/5.0 (Windows NT 10.0; Win64; x64; rv:135.0) Gecko/20100101 Firefox/135.0" version="26.0.12">
  <diagram name="Page-1" id="82e54ff1-d628-8f03-85c4-9753963a91cd">
    <mxGraphModel dx="1359" dy="693" grid="1" gridSize="9" guides="1" tooltips="1" connect="1" arrows="1" fold="1" page="1" pageScale="1" pageWidth="1100" pageHeight="850" background="none" math="0" shadow="0">
      <root>
        <mxCell id="0" />
        <mxCell id="1" parent="0" />
        <mxCell id="wCAeoNXJJfjMGHYGJGRU-37" value="" style="rounded=0;whiteSpace=wrap;html=1;fillColor=none;strokeColor=#007FFF;" vertex="1" parent="1">
          <mxGeometry x="756" y="313" width="130" height="146" as="geometry" />
        </mxCell>
        <mxCell id="wCAeoNXJJfjMGHYGJGRU-19" value="" style="rounded=0;whiteSpace=wrap;html=1;fillColor=none;strokeColor=#007FFF;" vertex="1" parent="1">
          <mxGeometry x="440" y="313" width="280" height="371" as="geometry" />
        </mxCell>
        <mxCell id="wCAeoNXJJfjMGHYGJGRU-9" value="" style="ellipse;shape=cloud;whiteSpace=wrap;html=1;fillColor=#647687;fontColor=#ffffff;strokeColor=#314354;" vertex="1" parent="1">
          <mxGeometry x="30" y="345" width="90" height="60" as="geometry" />
        </mxCell>
        <mxCell id="wCAeoNXJJfjMGHYGJGRU-10" value="" style="image;aspect=fixed;perimeter=ellipsePerimeter;html=1;align=center;shadow=0;dashed=0;spacingTop=3;image=img/lib/active_directory/firewall.svg;" vertex="1" parent="1">
          <mxGeometry x="200" y="350" width="30.5" height="50" as="geometry" />
        </mxCell>
        <mxCell id="wCAeoNXJJfjMGHYGJGRU-11" value="" style="image;html=1;image=img/lib/clip_art/networking/Router_Icon_128x128.png" vertex="1" parent="1">
          <mxGeometry x="320" y="350" width="60" height="55" as="geometry" />
        </mxCell>
        <mxCell id="wCAeoNXJJfjMGHYGJGRU-12" value="" style="image;aspect=fixed;perimeter=ellipsePerimeter;html=1;align=center;shadow=0;dashed=0;spacingTop=3;image=img/lib/active_directory/windows_server.svg;" vertex="1" parent="1">
          <mxGeometry x="500" y="355" width="41" height="50" as="geometry" />
        </mxCell>
        <mxCell id="wCAeoNXJJfjMGHYGJGRU-13" value="" style="image;aspect=fixed;perimeter=ellipsePerimeter;html=1;align=center;shadow=0;dashed=0;spacingTop=3;image=img/lib/active_directory/generic_server.svg;" vertex="1" parent="1">
          <mxGeometry x="644" y="355" width="28.000000000000004" height="50" as="geometry" />
        </mxCell>
        <mxCell id="wCAeoNXJJfjMGHYGJGRU-14" value="" style="image;aspect=fixed;perimeter=ellipsePerimeter;html=1;align=center;shadow=0;dashed=0;spacingTop=3;image=img/lib/active_directory/generic_server.svg;" vertex="1" parent="1">
          <mxGeometry x="803" y="357" width="28.000000000000004" height="50" as="geometry" />
        </mxCell>
        <mxCell id="wCAeoNXJJfjMGHYGJGRU-16" value="" style="sketch=0;pointerEvents=1;shadow=0;dashed=0;html=1;strokeColor=none;fillColor=#505050;labelPosition=center;verticalLabelPosition=bottom;verticalAlign=top;outlineConnect=0;align=center;shape=mxgraph.office.devices.workstation;" vertex="1" parent="1">
          <mxGeometry x="503" y="449" width="53" height="56" as="geometry" />
        </mxCell>
        <mxCell id="wCAeoNXJJfjMGHYGJGRU-17" value="" style="image;aspect=fixed;perimeter=ellipsePerimeter;html=1;align=center;shadow=1;dashed=0;spacingTop=3;image=img/lib/active_directory/generic_server.svg;imageBackground=none;labelBackgroundColor=none;imageBorder=#CC0000;strokeWidth=3;perimeterSpacing=0;opacity=80;" vertex="1" parent="1">
          <mxGeometry x="644" y="463" width="28.000000000000004" height="50" as="geometry" />
        </mxCell>
        <mxCell id="wCAeoNXJJfjMGHYGJGRU-18" value="" style="sketch=0;pointerEvents=1;shadow=0;dashed=0;html=1;strokeColor=#FF0000;fillColor=#505050;labelPosition=center;verticalLabelPosition=bottom;verticalAlign=top;outlineConnect=0;align=center;shape=mxgraph.office.devices.workstation;" vertex="1" parent="1">
          <mxGeometry x="48.5" y="465" width="53" height="56" as="geometry" />
        </mxCell>
        <mxCell id="wCAeoNXJJfjMGHYGJGRU-21" value="" style="image;aspect=fixed;perimeter=ellipsePerimeter;html=1;align=center;shadow=0;dashed=0;spacingTop=3;image=img/lib/active_directory/generic_server.svg;" vertex="1" parent="1">
          <mxGeometry x="506.5" y="594" width="28.000000000000004" height="50" as="geometry" />
        </mxCell>
        <mxCell id="wCAeoNXJJfjMGHYGJGRU-22" value="&lt;div&gt;&lt;font style=&quot;font-size: 15px;&quot;&gt;&lt;b&gt;Router&lt;/b&gt;&lt;/font&gt;&lt;/div&gt;&lt;div&gt;&lt;font style=&quot;font-size: 15px;&quot;&gt;(12.13.10.1)&lt;/font&gt;&lt;/div&gt;" style="text;whiteSpace=wrap;html=1;align=center;verticalAlign=middle;" vertex="1" parent="1">
          <mxGeometry x="299" y="314" width="110" height="40" as="geometry" />
        </mxCell>
        <mxCell id="wCAeoNXJJfjMGHYGJGRU-23" value="&lt;b&gt;&lt;font style=&quot;font-size: 15px;&quot;&gt;External Network&lt;/font&gt;&lt;/b&gt;" style="text;whiteSpace=wrap;html=1;align=center;verticalAlign=middle;" vertex="1" parent="1">
          <mxGeometry x="18" y="309" width="114" height="40" as="geometry" />
        </mxCell>
        <mxCell id="wCAeoNXJJfjMGHYGJGRU-24" value="&lt;b&gt;&lt;font style=&quot;font-size: 15px;&quot;&gt;Firewall&lt;/font&gt;&lt;/b&gt;" style="text;whiteSpace=wrap;html=1;align=center;verticalAlign=middle;" vertex="1" parent="1">
          <mxGeometry x="160.25" y="310" width="110" height="40" as="geometry" />
        </mxCell>
        <mxCell id="wCAeoNXJJfjMGHYGJGRU-25" value="&lt;p style=&quot;&quot;&gt;&lt;font style=&quot;font-size: 15px;&quot; face=&quot;Helvetica&quot;&gt;&lt;strong data-colorformula=&quot;THEMEGUARD(RGB(0,0,0))&quot; data-colorparams=&quot;#000000_null_null&quot; style=&quot;color: rgb(0, 0, 0);&quot;&gt;Remote Red Team &lt;br&gt;&lt;/strong&gt;&lt;/font&gt;&lt;font style=&quot;font-size: 15px;&quot; face=&quot;Helvetica&quot;&gt;&lt;strong data-colorformula=&quot;THEMEGUARD(RGB(0,0,0))&quot; data-colorparams=&quot;#000000_null_null&quot; style=&quot;color: rgb(0, 0, 0);&quot;&gt;(1.2.3.4)&lt;/strong&gt;&lt;/font&gt;&lt;/p&gt;" style="text;whiteSpace=wrap;html=1;align=center;verticalAlign=middle;" vertex="1" parent="1">
          <mxGeometry x="20" y="535" width="110" height="40" as="geometry" />
        </mxCell>
        <mxCell id="wCAeoNXJJfjMGHYGJGRU-26" value="&lt;div&gt;&lt;font style=&quot;font-size: 15px;&quot; face=&quot;Helvetica&quot;&gt;&lt;b&gt;iis.gfc.com&lt;/b&gt;&lt;/font&gt;&lt;/div&gt;&lt;div&gt;&lt;font style=&quot;font-size: 14px;&quot; face=&quot;Helvetica&quot;&gt;(12.13.14.15)&lt;/font&gt;&lt;/div&gt;" style="text;whiteSpace=wrap;html=1;align=center;verticalAlign=middle;" vertex="1" parent="1">
          <mxGeometry x="470" y="313" width="110" height="40" as="geometry" />
        </mxCell>
        <mxCell id="wCAeoNXJJfjMGHYGJGRU-27" value="&lt;div&gt;&lt;font style=&quot;font-size: 15px;&quot; face=&quot;Helvetica&quot;&gt;&lt;b&gt;appsvr1.gfc.com&lt;/b&gt;&lt;/font&gt;&lt;/div&gt;&lt;div&gt;&lt;font style=&quot;font-size: 14px;&quot; face=&quot;Helvetica&quot;&gt;(12.13.14.20)&lt;/font&gt;&lt;/div&gt;" style="text;whiteSpace=wrap;html=1;align=center;verticalAlign=middle;" vertex="1" parent="1">
          <mxGeometry x="605" y="517" width="110" height="40" as="geometry" />
        </mxCell>
        <mxCell id="wCAeoNXJJfjMGHYGJGRU-28" value="&lt;div&gt;&lt;font style=&quot;font-size: 15px;&quot; face=&quot;Helvetica&quot;&gt;db1.gfc.com&lt;/font&gt;&lt;/div&gt;&lt;div&gt;&lt;font style=&quot;font-size: 14px;&quot; face=&quot;Helvetica&quot;&gt;(12.13.14.25)&lt;/font&gt;&lt;/div&gt;" style="text;whiteSpace=wrap;html=1;align=center;verticalAlign=middle;" vertex="1" parent="1">
          <mxGeometry x="468" y="641" width="110" height="40" as="geometry" />
        </mxCell>
        <mxCell id="wCAeoNXJJfjMGHYGJGRU-29" value="&lt;div&gt;&lt;font style=&quot;font-size: 15px;&quot; face=&quot;Helvetica&quot;&gt;&lt;b&gt;wkstn1.gfc.com&lt;/b&gt;&lt;/font&gt;&lt;/div&gt;&lt;div&gt;&lt;font style=&quot;font-size: 14px;&quot; face=&quot;Helvetica&quot;&gt;(12.13.14.31)&lt;/font&gt;&lt;/div&gt;" style="text;whiteSpace=wrap;html=1;align=center;verticalAlign=middle;" vertex="1" parent="1">
          <mxGeometry x="474.5" y="511" width="110" height="40" as="geometry" />
        </mxCell>
        <mxCell id="wCAeoNXJJfjMGHYGJGRU-31" value="&lt;font style=&quot;font-size: 15px;&quot;&gt;&lt;b&gt;&lt;font&gt;Domain A&lt;/font&gt;&lt;/b&gt;&lt;/font&gt;" style="text;html=1;align=center;verticalAlign=middle;whiteSpace=wrap;rounded=0;" vertex="1" parent="1">
          <mxGeometry x="636" y="659" width="75" height="30" as="geometry" />
        </mxCell>
        <mxCell id="wCAeoNXJJfjMGHYGJGRU-32" value="&lt;div&gt;&lt;font style=&quot;font-size: 15px;&quot; face=&quot;Helvetica&quot;&gt;&lt;b&gt;dc2.ny.gfc.com&lt;/b&gt;&lt;/font&gt;&lt;/div&gt;&lt;div&gt;&lt;font style=&quot;font-size: 14px;&quot; face=&quot;Helvetica&quot;&gt;(12.13.15.20)&lt;/font&gt;&lt;/div&gt;" style="text;whiteSpace=wrap;html=1;align=center;verticalAlign=middle;" vertex="1" parent="1">
          <mxGeometry x="766" y="313" width="110" height="40" as="geometry" />
        </mxCell>
        <mxCell id="wCAeoNXJJfjMGHYGJGRU-33" value="&lt;div&gt;&lt;font style=&quot;font-size: 15px;&quot; face=&quot;Helvetica&quot;&gt;&lt;b&gt;dc1.gfc.com&lt;/b&gt;&lt;/font&gt;&lt;/div&gt;&lt;div&gt;&lt;font style=&quot;font-size: 14px;&quot; face=&quot;Helvetica&quot;&gt;(12.13.14.20)&lt;/font&gt;&lt;/div&gt;" style="text;whiteSpace=wrap;html=1;align=center;verticalAlign=middle;" vertex="1" parent="1">
          <mxGeometry x="607" y="315" width="110" height="40" as="geometry" />
        </mxCell>
        <mxCell id="wCAeoNXJJfjMGHYGJGRU-38" value="&lt;font style=&quot;font-size: 15px;&quot;&gt;&lt;b&gt;&lt;font&gt;Domain B&lt;/font&gt;&lt;/b&gt;&lt;/font&gt;" style="text;html=1;align=center;verticalAlign=middle;whiteSpace=wrap;rounded=0;" vertex="1" parent="1">
          <mxGeometry x="803" y="431" width="80" height="30" as="geometry" />
        </mxCell>
        <mxCell id="wCAeoNXJJfjMGHYGJGRU-39" value="" style="endArrow=classic;html=1;rounded=0;strokeWidth=2;" edge="1" parent="1">
          <mxGeometry width="50" height="50" relative="1" as="geometry">
            <mxPoint x="60" y="453" as="sourcePoint" />
            <mxPoint x="60" y="410" as="targetPoint" />
          </mxGeometry>
        </mxCell>
        <mxCell id="wCAeoNXJJfjMGHYGJGRU-40" value="" style="endArrow=classic;html=1;rounded=0;strokeWidth=2;" edge="1" parent="1">
          <mxGeometry width="50" height="50" relative="1" as="geometry">
            <mxPoint x="130" y="377.13" as="sourcePoint" />
            <mxPoint x="180" y="377.13" as="targetPoint" />
          </mxGeometry>
        </mxCell>
        <mxCell id="wCAeoNXJJfjMGHYGJGRU-41" value="" style="endArrow=classic;html=1;rounded=0;strokeWidth=2;" edge="1" parent="1">
          <mxGeometry width="50" height="50" relative="1" as="geometry">
            <mxPoint x="249" y="377.13" as="sourcePoint" />
            <mxPoint x="299" y="377.13" as="targetPoint" />
          </mxGeometry>
        </mxCell>
        <mxCell id="wCAeoNXJJfjMGHYGJGRU-42" value="" style="endArrow=classic;html=1;rounded=0;strokeWidth=2;" edge="1" parent="1">
          <mxGeometry width="50" height="50" relative="1" as="geometry">
            <mxPoint x="390" y="379.63" as="sourcePoint" />
            <mxPoint x="480" y="379.63" as="targetPoint" />
          </mxGeometry>
        </mxCell>
        <mxCell id="wCAeoNXJJfjMGHYGJGRU-43" value="" style="endArrow=classic;html=1;rounded=0;strokeWidth=2;" edge="1" parent="1">
          <mxGeometry width="50" height="50" relative="1" as="geometry">
            <mxPoint x="560" y="380" as="sourcePoint" />
            <mxPoint x="630" y="379.63" as="targetPoint" />
          </mxGeometry>
        </mxCell>
        <mxCell id="wCAeoNXJJfjMGHYGJGRU-45" value="" style="endArrow=classic;html=1;rounded=0;strokeWidth=2;" edge="1" parent="1">
          <mxGeometry width="50" height="50" relative="1" as="geometry">
            <mxPoint x="700" y="377.5" as="sourcePoint" />
            <mxPoint x="790" y="377.13" as="targetPoint" />
          </mxGeometry>
        </mxCell>
        <mxCell id="wCAeoNXJJfjMGHYGJGRU-46" value="" style="endArrow=classic;html=1;rounded=0;strokeWidth=2;" edge="1" parent="1">
          <mxGeometry width="50" height="50" relative="1" as="geometry">
            <mxPoint x="520" y="409.81" as="sourcePoint" />
            <mxPoint x="520" y="440.18" as="targetPoint" />
          </mxGeometry>
        </mxCell>
        <mxCell id="wCAeoNXJJfjMGHYGJGRU-47" value="" style="endArrow=classic;html=1;rounded=0;strokeWidth=2;" edge="1" parent="1">
          <mxGeometry width="50" height="50" relative="1" as="geometry">
            <mxPoint x="520.13" y="556" as="sourcePoint" />
            <mxPoint x="520.13" y="591" as="targetPoint" />
          </mxGeometry>
        </mxCell>
        <mxCell id="wCAeoNXJJfjMGHYGJGRU-52" value="&lt;div style=&quot;padding-bottom: 10px; padding-top: 10px; padding-right: 0px; margin-top: 0px; line-height: 110%;&quot; align=&quot;left&quot;&gt;&lt;font face=&quot;Helvetica&quot; style=&quot;line-height: 110%; font-size: 15px;&quot;&gt;&lt;b&gt;Access&lt;/b&gt;: Malware Executeable&lt;br&gt;&lt;b&gt;Deployment&lt;/b&gt;: Attacker Upload&lt;br&gt;&lt;b&gt;Port &amp;amp; Protocol&lt;/b&gt;: 8081, nonsecure web&lt;br&gt;&lt;b&gt;Time&lt;/b&gt;: 1 Feburary 2024 10:33pm&lt;br&gt;&lt;b&gt;Privilege Attained&lt;/b&gt;: Local Administrator&lt;br&gt;&lt;b&gt;Tools&lt;/b&gt;: asp.net web-shell (custom)&lt;br&gt;&lt;b&gt;Installation&lt;/b&gt;: C:\inetpub\wwwroot\gfc\uploads&lt;br&gt;&lt;b&gt;Target&lt;/b&gt;: iis.gfc.com, 12.13.14.15, IIS webserver&lt;br&gt;&lt;b&gt;Source&lt;/b&gt;: 1.2.3.4, Remote Red Team&lt;br&gt;&lt;b&gt;MITRE&lt;/b&gt;: T1059 Command and Scripting Interpreter&lt;br&gt;&lt;b&gt;Successful&lt;/b&gt;: Yes&lt;br&gt;&lt;b&gt;Deconfiliction&lt;/b&gt;: No&lt;/font&gt;&lt;/div&gt;" style="rounded=0;whiteSpace=wrap;html=1;fillColor=none;spacingLeft=2;" vertex="1" parent="1">
          <mxGeometry x="496" y="44" width="359" height="208" as="geometry" />
        </mxCell>
        <mxCell id="wCAeoNXJJfjMGHYGJGRU-34" value="&lt;font style=&quot;font-size: 31px;&quot; face=&quot;Helvetica&quot;&gt;&lt;b&gt;1&lt;/b&gt;&lt;/font&gt;" style="ellipse;whiteSpace=wrap;html=1;aspect=fixed;fillColor=#CC0000;fontColor=#ffffff;strokeColor=#B20000;" vertex="1" parent="1">
          <mxGeometry x="471.5" y="27" width="35" height="35" as="geometry" />
        </mxCell>
        <mxCell id="wCAeoNXJJfjMGHYGJGRU-53" value="&lt;div style=&quot;line-height: 100%; padding-bottom: 10px; margin-top: 10px; margin-bottom: 0px;&quot; align=&quot;left&quot;&gt;&lt;font face=&quot;Helvetica&quot; style=&quot;line-height: 100%; font-size: 15px;&quot;&gt;&lt;b&gt;Activity&lt;/b&gt;: Domain Admin credential capture via LSASS injection&lt;br&gt;&lt;b&gt;Time&lt;/b&gt;: 2 Feburary 2024 8:33am&lt;br&gt;&lt;b&gt;Privilege Required&lt;/b&gt;: SYSTEM&lt;br&gt;&lt;b&gt;Tools&lt;/b&gt;: Mimikatz via Meterpreter&lt;br&gt;&lt;b&gt;Installation&lt;/b&gt;: memory, process ID 676&lt;br&gt;&lt;b&gt;Target System&lt;/b&gt;: 12.13.14.25&lt;br&gt;&lt;b&gt;Source&lt;/b&gt;: 12.13.14.25&lt;br&gt;&lt;b&gt;MITRE&lt;/b&gt;: T1003 OS Credential Dumping&lt;br&gt;&lt;b&gt;Successful&lt;/b&gt;: Yes&lt;br&gt;&lt;b&gt;Deconfiliction&lt;/b&gt;: No&lt;/font&gt;&lt;/div&gt;" style="rounded=0;whiteSpace=wrap;html=1;fillColor=none;spacingLeft=4;" vertex="1" parent="1">
          <mxGeometry x="165" y="463" width="248" height="212" as="geometry" />
        </mxCell>
        <mxCell id="wCAeoNXJJfjMGHYGJGRU-35" value="&lt;font style=&quot;font-size: 31px;&quot; face=&quot;Helvetica&quot;&gt;&lt;b&gt;2&lt;/b&gt;&lt;/font&gt;" style="ellipse;whiteSpace=wrap;html=1;aspect=fixed;fillColor=#e51400;fontColor=#ffffff;strokeColor=#CC0000;" vertex="1" parent="1">
          <mxGeometry x="143" y="437.5" width="35" height="35" as="geometry" />
        </mxCell>
        <mxCell id="wCAeoNXJJfjMGHYGJGRU-54" value="" style="endArrow=classic;html=1;rounded=0;strokeWidth=2;entryX=0.444;entryY=-0.045;entryDx=0;entryDy=0;entryPerimeter=0;exitX=0.062;exitY=1.005;exitDx=0;exitDy=0;exitPerimeter=0;" edge="1" parent="1" source="wCAeoNXJJfjMGHYGJGRU-52" target="wCAeoNXJJfjMGHYGJGRU-26">
          <mxGeometry width="50" height="50" relative="1" as="geometry">
            <mxPoint x="520" y="254" as="sourcePoint" />
            <mxPoint x="528.97" y="282.37" as="targetPoint" />
          </mxGeometry>
        </mxCell>
        <mxCell id="wCAeoNXJJfjMGHYGJGRU-55" value="" style="endArrow=none;html=1;rounded=0;fillColor=#e51400;strokeColor=#B20000;strokeWidth=2;" edge="1" parent="1">
          <mxGeometry width="50" height="50" relative="1" as="geometry">
            <mxPoint x="81" y="454" as="sourcePoint" />
            <mxPoint x="81" y="405" as="targetPoint" />
          </mxGeometry>
        </mxCell>
        <mxCell id="wCAeoNXJJfjMGHYGJGRU-56" value="" style="endArrow=none;html=1;rounded=0;fillColor=#e51400;strokeColor=#B20000;strokeWidth=2;entryX=0.5;entryY=1;entryDx=0;entryDy=0;" edge="1" parent="1" target="wCAeoNXJJfjMGHYGJGRU-11">
          <mxGeometry width="50" height="50" relative="1" as="geometry">
            <mxPoint x="80" y="405" as="sourcePoint" />
            <mxPoint x="314" y="405" as="targetPoint" />
          </mxGeometry>
        </mxCell>
        <mxCell id="wCAeoNXJJfjMGHYGJGRU-57" value="" style="endArrow=none;html=1;rounded=0;fillColor=#e51400;strokeColor=#B20000;strokeWidth=2;" edge="1" parent="1">
          <mxGeometry width="50" height="50" relative="1" as="geometry">
            <mxPoint x="350" y="405" as="sourcePoint" />
            <mxPoint x="512" y="447" as="targetPoint" />
          </mxGeometry>
        </mxCell>
        <mxCell id="wCAeoNXJJfjMGHYGJGRU-58" value="" style="endArrow=none;html=1;rounded=0;fillColor=#e51400;strokeColor=#B20000;strokeWidth=2;entryX=-0.065;entryY=0.033;entryDx=0;entryDy=0;entryPerimeter=0;" edge="1" parent="1" target="wCAeoNXJJfjMGHYGJGRU-17">
          <mxGeometry width="50" height="50" relative="1" as="geometry">
            <mxPoint x="511" y="447" as="sourcePoint" />
            <mxPoint x="637" y="456" as="targetPoint" />
          </mxGeometry>
        </mxCell>
        <mxCell id="wCAeoNXJJfjMGHYGJGRU-59" value="&lt;div style=&quot;padding-bottom: 10px; margin-top: 10px;&quot; align=&quot;left&quot;&gt;&lt;font style=&quot;font-size: 15px;&quot;&gt;&lt;b&gt;Activity&lt;/b&gt;: Exfiltrate Powerpoint slides with GC corporate intelligence over port 8443 (encrypted)&lt;br&gt;&lt;b&gt;Time&lt;/b&gt;: 3 Feburary 2024 10:43pm&lt;br&gt;&lt;b&gt;Privilege Required&lt;/b&gt;: User&lt;br&gt;&lt;b&gt;Tools&lt;/b&gt;: Download via Meterpreter&lt;br&gt;&lt;b&gt;Target System&lt;/b&gt;: 12.13.14.51&lt;br&gt;&lt;b&gt;Source&lt;/b&gt;: 12.13.14.51 tunnelled through 12.13.14.51 pivot to 1.2.3.4&lt;br&gt;&lt;b&gt;MITRE&lt;/b&gt;:T1041 Exfiltration Over C2 Channel&lt;br&gt;&lt;b&gt;Successful&lt;/b&gt;: Yes&lt;br&gt;&lt;b&gt;Deconfiliction&lt;/b&gt;: No&lt;/font&gt;&lt;/div&gt;" style="rounded=0;whiteSpace=wrap;html=1;fillColor=none;spacingLeft=4;align=left;" vertex="1" parent="1">
          <mxGeometry x="761" y="499" width="319" height="225" as="geometry" />
        </mxCell>
        <mxCell id="wCAeoNXJJfjMGHYGJGRU-36" value="&lt;font style=&quot;font-size: 31px;&quot; face=&quot;Helvetica&quot;&gt;&lt;b&gt;3&lt;/b&gt;&lt;/font&gt;" style="ellipse;whiteSpace=wrap;html=1;aspect=fixed;fillColor=#e51400;fontColor=#ffffff;strokeColor=#990000;" vertex="1" parent="1">
          <mxGeometry x="738" y="478" width="35" height="35" as="geometry" />
        </mxCell>
        <mxCell id="wCAeoNXJJfjMGHYGJGRU-60" value="" style="endArrow=classic;html=1;rounded=0;strokeWidth=2;" edge="1" parent="1">
          <mxGeometry width="50" height="50" relative="1" as="geometry">
            <mxPoint x="763" y="532.37" as="sourcePoint" />
            <mxPoint x="682" y="505" as="targetPoint" />
          </mxGeometry>
        </mxCell>
        <mxCell id="wCAeoNXJJfjMGHYGJGRU-62" value="&lt;div align=&quot;center&quot;&gt;&lt;b&gt;&lt;font style=&quot;font-size: 22px;&quot;&gt;Financial Corporation&lt;/font&gt;&lt;/b&gt;&lt;/div&gt;" style="rounded=0;whiteSpace=wrap;html=1;align=center;verticalAlign=top;labelBackgroundColor=none;fillColor=#e51400;fontColor=#ffffff;strokeColor=#B20000;" vertex="1" parent="1">
          <mxGeometry x="88.5" y="81" width="261" height="38" as="geometry" />
        </mxCell>
        <mxCell id="wCAeoNXJJfjMGHYGJGRU-63" value="&lt;font style=&quot;font-size: 24px;&quot;&gt;&lt;b&gt;&lt;font&gt;Action Map&lt;/font&gt;&lt;/b&gt;&lt;/font&gt;" style="text;html=1;align=center;verticalAlign=middle;whiteSpace=wrap;rounded=0;labelBackgroundColor=none;textShadow=0;labelBorderColor=none;fillColor=none;" vertex="1" parent="1">
          <mxGeometry x="145.25" y="36" width="140" height="37" as="geometry" />
        </mxCell>
        <mxCell id="wCAeoNXJJfjMGHYGJGRU-64" value="" style="endArrow=classic;html=1;rounded=0;strokeWidth=2;" edge="1" parent="1">
          <mxGeometry width="50" height="50" relative="1" as="geometry">
            <mxPoint x="413" y="476.74" as="sourcePoint" />
            <mxPoint x="491" y="477.24" as="targetPoint" />
          </mxGeometry>
        </mxCell>
      </root>
    </mxGraphModel>
  </diagram>
</mxfile>
